M48
; DRILL file {KiCad 8.0.5} date 2025-05-26T16:56:40+0500
; FORMAT={-:-/ absolute / metric / decimal}
; #@! TF.CreationDate,2025-05-26T16:56:40+05:00
; #@! TF.GenerationSoftware,Kicad,Pcbnew,8.0.5
; #@! TF.FileFunction,Plated,1,2,PTH
FMAT,2
METRIC
; #@! TA.AperFunction,Plated,PTH,ComponentDrill
T1C0.750
; #@! TA.AperFunction,Plated,PTH,ComponentDrill
T2C0.800
; #@! TA.AperFunction,Plated,PTH,ComponentDrill
T3C0.900
; #@! TA.AperFunction,Plated,PTH,ComponentDrill
T4C1.000
; #@! TA.AperFunction,Plated,PTH,ComponentDrill
T5C1.100
; #@! TA.AperFunction,Plated,PTH,ViaDrill
T6C3.500
%
G90
G05
T1
X204.547Y-86.776
X205.817Y-85.506
X207.087Y-86.776
X209.2Y-93.45
X210.47Y-92.18
X211.74Y-93.45
T2
X184.25Y-70.29
X184.25Y-77.91
X184.32Y-82.02
X184.32Y-89.64
X184.715Y-92.929
X189.085Y-99.171
X212.42Y-85.98
X213.659Y-99.668
X216.741Y-98.231
X219.82Y-89.14
X219.82Y-96.76
X219.9Y-73.59
X219.9Y-81.21
X220.04Y-85.98
T3
X188.073Y-64.32
X190.019Y-62.687
X217.075Y-63.6
X219.615Y-63.6
T4
X199.5Y-87.535
X199.5Y-90.075
T5
X191.666Y-100.844
X193.568Y-96.766
X197.557Y-103.591
X199.459Y-99.513
T6
X202.75Y-56.8
M30
