G04 #@! TF.GenerationSoftware,KiCad,Pcbnew,8.0.5*
G04 #@! TF.CreationDate,2025-05-25T21:59:44+05:00*
G04 #@! TF.ProjectId,Wings_Of_Freedom,57696e67-735f-44f6-965f-46726565646f,rev?*
G04 #@! TF.SameCoordinates,Original*
G04 #@! TF.FileFunction,Copper,L1,Top*
G04 #@! TF.FilePolarity,Positive*
%FSLAX46Y46*%
G04 Gerber Fmt 4.6, Leading zero omitted, Abs format (unit mm)*
G04 Created by KiCad (PCBNEW 8.0.5) date 2025-05-25 21:59:44*
%MOMM*%
%LPD*%
G01*
G04 APERTURE LIST*
G04 Aperture macros list*
%AMRoundRect*
0 Rectangle with rounded corners*
0 $1 Rounding radius*
0 $2 $3 $4 $5 $6 $7 $8 $9 X,Y pos of 4 corners*
0 Add a 4 corners polygon primitive as box body*
4,1,4,$2,$3,$4,$5,$6,$7,$8,$9,$2,$3,0*
0 Add four circle primitives for the rounded corners*
1,1,$1+$1,$2,$3*
1,1,$1+$1,$4,$5*
1,1,$1+$1,$6,$7*
1,1,$1+$1,$8,$9*
0 Add four rect primitives between the rounded corners*
20,1,$1+$1,$2,$3,$4,$5,0*
20,1,$1+$1,$4,$5,$6,$7,0*
20,1,$1+$1,$6,$7,$8,$9,0*
20,1,$1+$1,$8,$9,$2,$3,0*%
%AMHorizOval*
0 Thick line with rounded ends*
0 $1 width*
0 $2 $3 position (X,Y) of the first rounded end (center of the circle)*
0 $4 $5 position (X,Y) of the second rounded end (center of the circle)*
0 Add line between two ends*
20,1,$1,$2,$3,$4,$5,0*
0 Add two circle primitives to create the rounded ends*
1,1,$1,$2,$3*
1,1,$1,$4,$5*%
%AMRotRect*
0 Rectangle, with rotation*
0 The origin of the aperture is its center*
0 $1 length*
0 $2 width*
0 $3 Rotation angle, in degrees counterclockwise*
0 Add horizontal line*
21,1,$1,$2,0,0,$3*%
G04 Aperture macros list end*
G04 #@! TA.AperFunction,EtchedComponent*
%ADD10C,0.000000*%
G04 #@! TD*
G04 #@! TA.AperFunction,ComponentPad*
%ADD11C,1.600000*%
G04 #@! TD*
G04 #@! TA.AperFunction,ComponentPad*
%ADD12O,1.600000X1.600000*%
G04 #@! TD*
G04 #@! TA.AperFunction,ComponentPad*
%ADD13R,1.700000X1.700000*%
G04 #@! TD*
G04 #@! TA.AperFunction,ComponentPad*
%ADD14O,1.700000X1.700000*%
G04 #@! TD*
G04 #@! TA.AperFunction,ComponentPad*
%ADD15R,1.100000X1.800000*%
G04 #@! TD*
G04 #@! TA.AperFunction,ComponentPad*
%ADD16RoundRect,0.275000X0.275000X0.625000X-0.275000X0.625000X-0.275000X-0.625000X0.275000X-0.625000X0*%
G04 #@! TD*
G04 #@! TA.AperFunction,ComponentPad*
%ADD17RotRect,1.600000X1.600000X125.000000*%
G04 #@! TD*
G04 #@! TA.AperFunction,ComponentPad*
%ADD18HorizOval,1.600000X0.000000X0.000000X0.000000X0.000000X0*%
G04 #@! TD*
G04 #@! TA.AperFunction,ComponentPad*
%ADD19R,1.800000X1.800000*%
G04 #@! TD*
G04 #@! TA.AperFunction,ComponentPad*
%ADD20C,1.800000*%
G04 #@! TD*
G04 #@! TA.AperFunction,ComponentPad*
%ADD21RotRect,1.800000X1.800000X40.000000*%
G04 #@! TD*
G04 #@! TA.AperFunction,ComponentPad*
%ADD22C,1.500000*%
G04 #@! TD*
G04 #@! TA.AperFunction,ComponentPad*
%ADD23C,2.000000*%
G04 #@! TD*
G04 #@! TA.AperFunction,ViaPad*
%ADD24C,5.500000*%
G04 #@! TD*
G04 APERTURE END LIST*
D10*
G04 #@! TA.AperFunction,EtchedComponent*
G36*
X194924855Y-93110538D02*
G01*
X195201516Y-93164948D01*
X195330618Y-93279259D01*
X195348746Y-93539763D01*
X195297892Y-93990357D01*
X195229648Y-94460686D01*
X195167376Y-94782792D01*
X195139932Y-94863203D01*
X195050391Y-94771656D01*
X194882691Y-94468346D01*
X194770359Y-94232147D01*
X194529514Y-93646124D01*
X194458557Y-93289111D01*
X194563045Y-93120764D01*
X194848537Y-93100736D01*
X194924855Y-93110538D01*
G37*
G04 #@! TD.AperFunction*
G04 #@! TA.AperFunction,EtchedComponent*
G36*
X193698366Y-101308036D02*
G01*
X193470712Y-102003349D01*
X193229263Y-102539149D01*
X193002653Y-102859266D01*
X192874054Y-102925117D01*
X192679314Y-102836367D01*
X192369752Y-102621439D01*
X192352674Y-102608088D01*
X192049329Y-102291457D01*
X191714361Y-101828963D01*
X191409719Y-101321912D01*
X191197355Y-100871614D01*
X191135519Y-100617668D01*
X191208762Y-100509362D01*
X191460594Y-100442119D01*
X191939166Y-100408528D01*
X192543605Y-100400893D01*
X193951690Y-100400893D01*
X193698366Y-101308036D01*
G37*
G04 #@! TD.AperFunction*
G04 #@! TA.AperFunction,EtchedComponent*
G36*
X193518663Y-88195798D02*
G01*
X193774624Y-88338146D01*
X194228268Y-88537019D01*
X194745373Y-88735988D01*
X195752122Y-89099277D01*
X195652516Y-90277615D01*
X195602990Y-90923411D01*
X195567326Y-91502709D01*
X195552939Y-91894346D01*
X195552910Y-91905441D01*
X195518488Y-92241846D01*
X195409969Y-92322130D01*
X195219473Y-92137208D01*
X194939121Y-91677992D01*
X194561034Y-90935397D01*
X194377201Y-90549600D01*
X193939965Y-89609354D01*
X193633722Y-88924455D01*
X193448621Y-88467896D01*
X193374813Y-88212676D01*
X193402449Y-88131789D01*
X193518663Y-88195798D01*
G37*
G04 #@! TD.AperFunction*
G04 #@! TA.AperFunction,EtchedComponent*
G36*
X192846494Y-82916141D02*
G01*
X193035732Y-82999882D01*
X193445681Y-83185356D01*
X194010323Y-83442600D01*
X194486690Y-83660522D01*
X195998084Y-84353069D01*
X195911961Y-86184745D01*
X195876722Y-86904565D01*
X195845189Y-87494562D01*
X195820898Y-87892037D01*
X195807697Y-88034263D01*
X195664796Y-88002619D01*
X195385596Y-87912757D01*
X195216728Y-87834552D01*
X195054967Y-87698988D01*
X194879145Y-87468902D01*
X194668091Y-87107132D01*
X194400638Y-86576518D01*
X194055617Y-85839897D01*
X193611859Y-84860108D01*
X193482945Y-84572663D01*
X193197626Y-83917350D01*
X192982569Y-83387213D01*
X192858255Y-83035556D01*
X192845162Y-82915684D01*
X192846494Y-82916141D01*
G37*
G04 #@! TD.AperFunction*
G04 #@! TA.AperFunction,EtchedComponent*
G36*
X193213699Y-71932684D02*
G01*
X193439483Y-72076675D01*
X193849505Y-72349827D01*
X194379115Y-72707894D01*
X194963669Y-73106625D01*
X195538517Y-73501772D01*
X196039014Y-73849086D01*
X196400511Y-74104319D01*
X196553551Y-74218698D01*
X196591012Y-74430046D01*
X196507937Y-74669590D01*
X196416403Y-74971616D01*
X196322933Y-75496591D01*
X196242585Y-76152394D01*
X196215055Y-76461372D01*
X196100726Y-77919526D01*
X195054777Y-76886006D01*
X194534357Y-76352454D01*
X194184266Y-75921882D01*
X193938118Y-75488646D01*
X193729524Y-74947103D01*
X193617229Y-74598428D01*
X193360211Y-73711259D01*
X193182112Y-72961687D01*
X193088683Y-72387715D01*
X193085679Y-72027343D01*
X193178851Y-71918575D01*
X193213699Y-71932684D01*
G37*
G04 #@! TD.AperFunction*
G04 #@! TA.AperFunction,EtchedComponent*
G36*
X213172547Y-104765175D02*
G01*
X213937742Y-105394718D01*
X214754541Y-106061565D01*
X215524434Y-106685569D01*
X216141109Y-107180377D01*
X216796878Y-107703150D01*
X217240500Y-108060015D01*
X217507394Y-108280689D01*
X217632981Y-108394888D01*
X217652681Y-108432326D01*
X217631979Y-108431136D01*
X217469487Y-108367346D01*
X217068572Y-108201921D01*
X216481245Y-107956541D01*
X215759513Y-107652887D01*
X215352289Y-107480817D01*
X214374397Y-107065200D01*
X213233073Y-106577248D01*
X212054054Y-106070874D01*
X210963076Y-105599993D01*
X210703625Y-105487543D01*
X208263657Y-104428868D01*
X209125986Y-104237507D01*
X209788689Y-104054144D01*
X210469721Y-103811215D01*
X210727205Y-103700222D01*
X211466097Y-103354297D01*
X213172547Y-104765175D01*
G37*
G04 #@! TD.AperFunction*
G04 #@! TA.AperFunction,EtchedComponent*
G36*
X196534986Y-63130771D02*
G01*
X197523270Y-64169652D01*
X198614765Y-65283655D01*
X199718044Y-66381138D01*
X200741683Y-67370461D01*
X201114090Y-67720714D01*
X201540483Y-68130368D01*
X201857840Y-68459355D01*
X202010341Y-68649105D01*
X202016216Y-68667298D01*
X201959847Y-68805298D01*
X201779228Y-69034285D01*
X201441659Y-69390133D01*
X200914440Y-69908718D01*
X200671878Y-70142194D01*
X199733656Y-71041879D01*
X197682724Y-69121100D01*
X196951842Y-68419366D01*
X196338516Y-67796406D01*
X195875958Y-67288042D01*
X195597381Y-66930095D01*
X195532135Y-66801538D01*
X195494645Y-66502320D01*
X195460796Y-65957583D01*
X195433719Y-65237338D01*
X195416545Y-64411595D01*
X195413812Y-64156237D01*
X195395146Y-61909717D01*
X196534986Y-63130771D01*
G37*
G04 #@! TD.AperFunction*
G04 #@! TA.AperFunction,EtchedComponent*
G36*
X192457381Y-76504995D02*
G01*
X192765760Y-76680099D01*
X193151534Y-76921237D01*
X193523480Y-77171923D01*
X193738625Y-77332332D01*
X193939165Y-77469581D01*
X194335268Y-77723887D01*
X194853080Y-78048076D01*
X195038827Y-78162815D01*
X196181265Y-78866110D01*
X196165493Y-80207104D01*
X196145060Y-80968603D01*
X196105722Y-81738367D01*
X196055482Y-82364448D01*
X196048521Y-82427768D01*
X195947320Y-83307439D01*
X195288787Y-82910036D01*
X194659089Y-82373945D01*
X194360504Y-81872601D01*
X194144675Y-81345763D01*
X193877986Y-80672610D01*
X193581031Y-79907784D01*
X193274405Y-79105927D01*
X192978703Y-78321683D01*
X192714520Y-77609693D01*
X192502452Y-77024600D01*
X192363092Y-76621047D01*
X192317036Y-76453675D01*
X192317615Y-76452412D01*
X192457381Y-76504995D01*
G37*
G04 #@! TD.AperFunction*
G04 #@! TA.AperFunction,EtchedComponent*
G36*
X189808331Y-95667356D02*
G01*
X190400328Y-95740468D01*
X191058908Y-95871650D01*
X191724887Y-96053683D01*
X192318749Y-96270634D01*
X192968062Y-96535183D01*
X193605801Y-96775473D01*
X194090560Y-96938420D01*
X194396718Y-97025339D01*
X194585686Y-97109643D01*
X194667632Y-97253541D01*
X194652726Y-97519243D01*
X194551136Y-97968958D01*
X194373034Y-98664895D01*
X194372883Y-98665489D01*
X194247390Y-99098445D01*
X194092840Y-99311048D01*
X193806982Y-99389866D01*
X193492445Y-99410862D01*
X192607856Y-99303563D01*
X192100424Y-99107324D01*
X191734686Y-98855809D01*
X191238316Y-98418823D01*
X190672856Y-97861149D01*
X190099850Y-97247568D01*
X189580840Y-96642862D01*
X189177370Y-96111813D01*
X189023654Y-95868643D01*
X189060812Y-95724224D01*
X189342098Y-95659535D01*
X189808331Y-95667356D01*
G37*
G04 #@! TD.AperFunction*
G04 #@! TA.AperFunction,EtchedComponent*
G36*
X194129789Y-67522998D02*
G01*
X194497946Y-67783326D01*
X195010950Y-68173202D01*
X195624979Y-68656626D01*
X196296210Y-69197596D01*
X196980822Y-69760109D01*
X197634991Y-70308164D01*
X198214894Y-70805760D01*
X198676711Y-71216894D01*
X198976617Y-71505564D01*
X199071113Y-71635163D01*
X198957030Y-71772910D01*
X198676961Y-72086745D01*
X198280081Y-72521965D01*
X198037014Y-72785491D01*
X197034402Y-73868405D01*
X195925280Y-73029215D01*
X195391603Y-72617151D01*
X195045827Y-72301677D01*
X194823261Y-71990291D01*
X194659212Y-71590492D01*
X194488991Y-71009779D01*
X194473218Y-70952913D01*
X194326046Y-70355587D01*
X194187195Y-69676543D01*
X194066770Y-68983904D01*
X193974880Y-68345793D01*
X193921629Y-67830331D01*
X193917124Y-67505640D01*
X193950302Y-67428222D01*
X194129789Y-67522998D01*
G37*
G04 #@! TD.AperFunction*
G04 #@! TA.AperFunction,EtchedComponent*
G36*
X185166872Y-79004773D02*
G01*
X186370626Y-79253993D01*
X187476830Y-79748887D01*
X188231633Y-80297010D01*
X188525376Y-80513127D01*
X189016844Y-80826918D01*
X189625148Y-81187960D01*
X190000141Y-81399431D01*
X191404236Y-82175299D01*
X191828331Y-83360456D01*
X192118699Y-84112834D01*
X192479350Y-84965473D01*
X192834305Y-85739053D01*
X192848514Y-85768284D01*
X193104822Y-86315548D01*
X193281879Y-86736265D01*
X193353659Y-86966467D01*
X193345968Y-86990955D01*
X193176806Y-86924291D01*
X192778544Y-86741003D01*
X192204012Y-86466143D01*
X191506040Y-86124766D01*
X191205402Y-85975838D01*
X189559408Y-85116058D01*
X188170164Y-84302377D01*
X187050365Y-83543289D01*
X186212706Y-82847288D01*
X185734843Y-82315498D01*
X185225925Y-81550583D01*
X184752947Y-80712387D01*
X184375601Y-79913758D01*
X184183923Y-79383481D01*
X184045418Y-78900545D01*
X185166872Y-79004773D01*
G37*
G04 #@! TD.AperFunction*
G04 #@! TA.AperFunction,EtchedComponent*
G36*
X186172414Y-85433217D02*
G01*
X186809110Y-85485956D01*
X187514617Y-85561088D01*
X187668850Y-85579820D01*
X188420692Y-85694370D01*
X188987386Y-85846196D01*
X189499241Y-86079308D01*
X189952289Y-86351009D01*
X190542389Y-86722017D01*
X191130174Y-87082008D01*
X191529929Y-87318932D01*
X191799521Y-87497733D01*
X192039446Y-87727584D01*
X192285002Y-88060127D01*
X192571486Y-88547005D01*
X192934197Y-89239858D01*
X193186451Y-89742464D01*
X193613031Y-90598980D01*
X193917570Y-91212510D01*
X194117539Y-91623081D01*
X194230405Y-91870716D01*
X194273640Y-91995441D01*
X194264711Y-92037281D01*
X194221088Y-92036261D01*
X194185623Y-92031732D01*
X193985462Y-91976416D01*
X193569368Y-91836136D01*
X193016410Y-91637865D01*
X192838754Y-91572260D01*
X191191128Y-90869964D01*
X189656059Y-90039991D01*
X188275187Y-89113015D01*
X187090148Y-88119710D01*
X186142582Y-87090749D01*
X185550843Y-86203455D01*
X185120795Y-85413315D01*
X185726395Y-85413315D01*
X186172414Y-85433217D01*
G37*
G04 #@! TD.AperFunction*
G04 #@! TA.AperFunction,EtchedComponent*
G36*
X186731163Y-53681458D02*
G01*
X187326849Y-54003453D01*
X187684083Y-54224520D01*
X188570066Y-54895397D01*
X189480165Y-55785984D01*
X189799575Y-56148098D01*
X190299389Y-56719152D01*
X190950461Y-57436763D01*
X191681558Y-58223758D01*
X192421449Y-59002960D01*
X192711891Y-59303377D01*
X194553553Y-61196545D01*
X194484200Y-63681328D01*
X194454542Y-64525887D01*
X194417619Y-65246581D01*
X194377086Y-65790374D01*
X194336597Y-66104230D01*
X194313382Y-66160109D01*
X194129712Y-66054219D01*
X194032522Y-65962904D01*
X193863462Y-65796688D01*
X193504954Y-65453358D01*
X192997729Y-64971612D01*
X192382518Y-64390150D01*
X191789943Y-63832156D01*
X190404093Y-62482927D01*
X189261250Y-61259667D01*
X188335386Y-60123483D01*
X187600476Y-59035482D01*
X187030492Y-57956770D01*
X186599409Y-56848456D01*
X186281200Y-55671646D01*
X186258206Y-55565723D01*
X186084484Y-54661126D01*
X186025194Y-54038954D01*
X186100060Y-53680655D01*
X186328808Y-53567674D01*
X186731163Y-53681458D01*
G37*
G04 #@! TD.AperFunction*
G04 #@! TA.AperFunction,EtchedComponent*
G36*
X188417291Y-90632180D02*
G01*
X188921024Y-90679187D01*
X189272078Y-90774119D01*
X189551538Y-90930547D01*
X189555710Y-90933510D01*
X189882790Y-91133966D01*
X190412324Y-91423547D01*
X191060962Y-91757685D01*
X191522941Y-91985388D01*
X192225608Y-92335660D01*
X192701827Y-92608758D01*
X193015025Y-92852120D01*
X193228632Y-93113183D01*
X193370792Y-93367367D01*
X193663594Y-93840405D01*
X194081423Y-94384700D01*
X194402197Y-94743263D01*
X194805706Y-95193750D01*
X194998389Y-95513856D01*
X195017145Y-95768624D01*
X195006312Y-95808170D01*
X194849119Y-96070214D01*
X194714018Y-96135640D01*
X194504216Y-96079324D01*
X194061362Y-95929112D01*
X193446074Y-95706499D01*
X192718972Y-95432982D01*
X192555395Y-95370181D01*
X191410217Y-94920150D01*
X190505920Y-94537409D01*
X189784629Y-94187751D01*
X189188468Y-93836971D01*
X188659559Y-93450861D01*
X188140027Y-92995217D01*
X187571996Y-92435831D01*
X187546389Y-92409734D01*
X187035065Y-91869434D01*
X186618170Y-91393315D01*
X186340068Y-91034518D01*
X186244836Y-90850774D01*
X186303866Y-90737971D01*
X186515983Y-90667484D01*
X186933724Y-90630843D01*
X187609627Y-90619584D01*
X187679798Y-90619526D01*
X188417291Y-90632180D01*
G37*
G04 #@! TD.AperFunction*
G04 #@! TA.AperFunction,EtchedComponent*
G36*
X184495703Y-72077806D02*
G01*
X184996323Y-72281863D01*
X185656546Y-72586705D01*
X186419750Y-72963488D01*
X187229313Y-73383367D01*
X188028615Y-73817500D01*
X188761034Y-74237043D01*
X189369948Y-74613151D01*
X189487798Y-74691304D01*
X189968035Y-75021608D01*
X190312019Y-75295286D01*
X190573185Y-75582637D01*
X190804969Y-75953961D01*
X191060804Y-76479558D01*
X191362326Y-77157467D01*
X191691016Y-77902457D01*
X192002979Y-78606182D01*
X192259311Y-79181067D01*
X192401731Y-79497166D01*
X192637291Y-80028383D01*
X192866576Y-80568515D01*
X193055149Y-81033636D01*
X193168572Y-81339820D01*
X193186451Y-81409601D01*
X193141470Y-81456710D01*
X192982582Y-81410712D01*
X192673866Y-81252856D01*
X192179399Y-80964387D01*
X191463263Y-80526556D01*
X191293283Y-80421281D01*
X190147324Y-79691909D01*
X189193771Y-79035851D01*
X188343232Y-78384477D01*
X187506316Y-77669154D01*
X186593633Y-76821253D01*
X186550390Y-76779877D01*
X185702714Y-75908216D01*
X185076143Y-75105444D01*
X184617043Y-74285290D01*
X184271779Y-73361480D01*
X184144862Y-72910520D01*
X184019659Y-72406733D01*
X183983365Y-72135443D01*
X184041234Y-72024913D01*
X184198521Y-72003404D01*
X184211307Y-72003377D01*
X184495703Y-72077806D01*
G37*
G04 #@! TD.AperFunction*
G04 #@! TA.AperFunction,EtchedComponent*
G36*
X184627964Y-66708302D02*
G01*
X185226938Y-66863691D01*
X185704113Y-67004598D01*
X186118606Y-67161878D01*
X186529534Y-67366385D01*
X186996014Y-67648975D01*
X187577163Y-68040501D01*
X188332098Y-68571819D01*
X188701860Y-68834586D01*
X189445174Y-69362111D01*
X190161202Y-69868438D01*
X190780024Y-70304243D01*
X191231717Y-70620207D01*
X191319841Y-70681258D01*
X191695579Y-70953381D01*
X191916899Y-71187910D01*
X192035672Y-71485684D01*
X192103771Y-71947543D01*
X192134400Y-72264772D01*
X192244885Y-73004181D01*
X192431222Y-73839076D01*
X192622860Y-74494035D01*
X192802753Y-75032954D01*
X192929626Y-75432498D01*
X192980843Y-75620836D01*
X192979847Y-75626828D01*
X192843780Y-75544811D01*
X192487741Y-75321738D01*
X191957576Y-74986555D01*
X191299127Y-74568208D01*
X190869339Y-74294288D01*
X189307474Y-73276160D01*
X187996736Y-72370770D01*
X186905245Y-71551335D01*
X186001125Y-70791071D01*
X185252496Y-70063194D01*
X184627481Y-69340922D01*
X184100706Y-68607425D01*
X183780933Y-68135524D01*
X183519804Y-67780660D01*
X183370601Y-67614967D01*
X183365643Y-67612280D01*
X183289449Y-67436227D01*
X183249201Y-67065940D01*
X183247320Y-66958348D01*
X183247320Y-66357004D01*
X184627964Y-66708302D01*
G37*
G04 #@! TD.AperFunction*
G04 #@! TA.AperFunction,EtchedComponent*
G36*
X184666816Y-59848543D02*
G01*
X185029774Y-60098437D01*
X185561112Y-60499523D01*
X186226630Y-61023117D01*
X186992130Y-61640538D01*
X187823413Y-62323103D01*
X188686282Y-63042131D01*
X189546539Y-63768939D01*
X190369984Y-64474846D01*
X191122420Y-65131168D01*
X191769649Y-65709224D01*
X192277471Y-66180331D01*
X192611689Y-66515808D01*
X192736874Y-66681406D01*
X192800052Y-67044563D01*
X192844609Y-67568889D01*
X192855197Y-67851759D01*
X192898270Y-68441803D01*
X192995019Y-69170344D01*
X193110346Y-69807884D01*
X193219643Y-70364443D01*
X193287660Y-70785420D01*
X193301669Y-70990363D01*
X193298517Y-70997315D01*
X193162580Y-70925264D01*
X192826375Y-70691911D01*
X192337241Y-70331523D01*
X191742520Y-69878367D01*
X191599777Y-69767732D01*
X190263273Y-68718235D01*
X189088176Y-67774175D01*
X188092895Y-66951095D01*
X187295838Y-66264536D01*
X186715414Y-65730043D01*
X186370033Y-65363157D01*
X186345699Y-65331724D01*
X186002570Y-64830102D01*
X185697482Y-64274853D01*
X185397131Y-63594192D01*
X185068211Y-62716337D01*
X184879086Y-62170613D01*
X184582044Y-61244104D01*
X184411689Y-60571004D01*
X184362840Y-60118068D01*
X184430320Y-59852052D01*
X184506434Y-59778522D01*
X184666816Y-59848543D01*
G37*
G04 #@! TD.AperFunction*
D11*
X219900000Y-73590000D03*
D12*
X219900000Y-81210000D03*
D13*
X199500000Y-90075000D03*
D14*
X199500000Y-87534999D03*
D15*
X207087500Y-87176400D03*
D16*
X205817500Y-85106400D03*
X204547500Y-87176400D03*
D11*
X184249999Y-77910001D03*
D12*
X184249998Y-70290000D03*
D17*
X189085300Y-99171000D03*
D18*
X184714645Y-92929060D03*
D19*
X217075000Y-63600000D03*
D20*
X219615001Y-63600000D03*
D15*
X211740000Y-93850000D03*
D16*
X210470000Y-91780000D03*
X209199999Y-93850000D03*
D11*
X212419900Y-85979701D03*
D12*
X220039901Y-85979702D03*
D21*
X188073293Y-64319555D03*
D20*
X190019048Y-62686873D03*
D22*
X216740700Y-98231500D03*
X213659254Y-99668403D03*
D11*
X184320000Y-89640000D03*
D12*
X184319998Y-82019999D03*
D23*
X199459200Y-99512800D03*
X193568199Y-96765781D03*
X197557417Y-103591185D03*
X191666418Y-100844167D03*
D11*
X219820000Y-96760000D03*
D12*
X219819999Y-89139999D03*
D24*
X202750000Y-56800000D03*
M02*
