G04 #@! TF.GenerationSoftware,KiCad,Pcbnew,8.0.5*
G04 #@! TF.CreationDate,2025-05-26T16:56:43+05:00*
G04 #@! TF.ProjectId,Wings_Of_Freedom,57696e67-735f-44f6-965f-46726565646f,rev?*
G04 #@! TF.SameCoordinates,Original*
G04 #@! TF.FileFunction,Profile,NP*
%FSLAX46Y46*%
G04 Gerber Fmt 4.6, Leading zero omitted, Abs format (unit mm)*
G04 Created by KiCad (PCBNEW 8.0.5) date 2025-05-26 16:56:43*
%MOMM*%
%LPD*%
G01*
G04 APERTURE LIST*
G04 #@! TA.AperFunction,Profile*
%ADD10C,0.050000*%
G04 #@! TD*
G04 APERTURE END LIST*
D10*
X217380000Y-54740000D02*
X217620000Y-54580000D01*
X214730000Y-106040000D02*
X215510000Y-106660000D01*
X181540000Y-59440000D02*
X181520000Y-57330000D01*
X223970000Y-68150000D02*
X224030000Y-78470000D01*
X214320000Y-107070000D02*
X211170000Y-105710000D01*
X185390000Y-101350000D02*
X184820000Y-101070000D01*
X223950000Y-57340000D02*
X223970000Y-57340000D01*
X223970000Y-61040000D02*
X223970000Y-62550000D01*
X213140000Y-104720000D02*
X213880000Y-105340000D01*
X219190000Y-54940000D02*
X218980000Y-56230000D01*
X213880000Y-105340000D02*
X214730000Y-106040000D01*
X181410000Y-86850000D02*
X181460000Y-80940000D01*
X192210000Y-104670000D02*
X191410000Y-104280000D01*
X188570000Y-54900000D02*
X190870000Y-57340000D01*
X202800000Y-109720000D02*
X202120000Y-109510000D01*
X217660000Y-108420000D02*
X216910000Y-108150000D01*
X188700000Y-108140000D02*
X188640000Y-108140000D01*
X186330000Y-53600000D02*
X186720000Y-53700000D01*
X221960000Y-100460000D02*
X220480000Y-101160000D01*
X200049981Y-57359277D02*
G75*
G02*
X205447562Y-57370066I2700019J609277D01*
G01*
X219260000Y-53660000D02*
X219280000Y-53660000D01*
X186620000Y-56880000D02*
X186270000Y-55680000D01*
X216550000Y-55410000D02*
X217380000Y-54740000D01*
X224030000Y-78470000D02*
X224170000Y-99390000D01*
X188620000Y-108100000D02*
X189700000Y-107150000D01*
X217620000Y-54580000D02*
X218710000Y-53980000D01*
X190870000Y-57340000D02*
X200049981Y-57359277D01*
X218710000Y-53980000D02*
X219260000Y-53660000D01*
X186120000Y-53730000D02*
X186130000Y-53700000D01*
X215510000Y-106660000D02*
X216460000Y-107420000D01*
X204540000Y-108920000D02*
X202800000Y-109720000D01*
X194350000Y-105660000D02*
X192130000Y-106720000D01*
X217080000Y-107930000D02*
X217660000Y-108420000D01*
X186720000Y-57330000D02*
X186770000Y-57330000D01*
X198090000Y-107540000D02*
X196860000Y-106920000D01*
X182440000Y-99910000D02*
X181310000Y-99420000D01*
X214680000Y-57390000D02*
X216550000Y-55410000D01*
X205449957Y-57370617D02*
X205999954Y-57371772D01*
X186120000Y-54780000D02*
X186020000Y-54080000D01*
X223970000Y-57340000D02*
X223970000Y-59190000D01*
X186720000Y-53700000D02*
X187680000Y-54240000D01*
X207910000Y-107310000D02*
X207190000Y-107650000D01*
X181540000Y-63560000D02*
X181540000Y-59440000D01*
X189700000Y-107150000D02*
X191510000Y-105680000D01*
X192470000Y-104860000D02*
X192210000Y-104670000D01*
X220480000Y-101160000D02*
X213140000Y-104720000D01*
X188640000Y-108140000D02*
X188620000Y-108100000D01*
X211170000Y-105710000D02*
X210590000Y-105990000D01*
X210590000Y-105990000D02*
X207910000Y-107310000D01*
X191510000Y-105680000D02*
X192470000Y-104860000D01*
X190960000Y-107220000D02*
X188700000Y-108140000D01*
X216460000Y-107420000D02*
X217080000Y-107930000D01*
X184820000Y-101070000D02*
X182440000Y-99910000D01*
X191560000Y-106980000D02*
X190960000Y-107220000D01*
X186130000Y-53700000D02*
X186330000Y-53600000D01*
X181460000Y-80940000D02*
X181540000Y-63560000D01*
X219280000Y-53660000D02*
X219190000Y-54940000D01*
X186590000Y-101930000D02*
X185390000Y-101350000D01*
X192130000Y-106720000D02*
X191560000Y-106980000D01*
X190030000Y-103600000D02*
X188850000Y-103040000D01*
X186270000Y-55680000D02*
X186120000Y-54780000D01*
X218980000Y-56230000D02*
X218640000Y-57330000D01*
X186770000Y-57330000D02*
X186620000Y-56880000D01*
X207190000Y-107650000D02*
X204540000Y-108920000D01*
X205999954Y-57371772D02*
X214680000Y-57390000D01*
X181520000Y-57330000D02*
X186720000Y-57330000D01*
X187680000Y-54240000D02*
X188570000Y-54900000D01*
X224170000Y-99390000D02*
X221960000Y-100460000D01*
X196860000Y-106920000D02*
X194590000Y-105800000D01*
X202120000Y-109510000D02*
X198090000Y-107540000D01*
X181310000Y-99420000D02*
X181410000Y-86850000D01*
X216910000Y-108150000D02*
X214320000Y-107070000D01*
X223970000Y-62550000D02*
X223970000Y-68150000D01*
X194590000Y-105800000D02*
X194350000Y-105660000D01*
X188850000Y-103040000D02*
X186590000Y-101930000D01*
X191410000Y-104280000D02*
X190030000Y-103600000D01*
X223970000Y-59190000D02*
X223970000Y-61040000D01*
X219090000Y-57330000D02*
X223950000Y-57340000D01*
X218640000Y-57330000D02*
X219090000Y-57330000D01*
X186020000Y-54080000D02*
X186120000Y-53730000D01*
M02*
